# xmcd
#
# Track frame offsets: 
#        150
#        17225
#        36708
#        51382
#        70678
#        90129
#        107004
#        123492
#        142267
#        156848
#        177882
#        190738
#        208924
#        223047
#        243249
#        258476
#
# Disc length: 3729 seconds
#
# Revision: 0
# Processed by: cddbd v1.5.2PL0 Copyright (c) Steve Scherf et al.
# Submitted via: ExactAudioCopy v0.99pb4
#
DISCID=ef0e8f10
DTITLE=Karen Peck and New River - The Best of Karen Peck and New River
DYEAR=1999
DGENRE=Gospel
TTITLE0=I Wanna Know How it Feels
TTITLE1=Four Days Late
TTITLE2=River of Peace
TTITLE3=All for the Glory of Christ
TTITLE4=Christian in the House
TTITLE5=Who Touched Me
TTITLE6=Walk in Triumph
TTITLE7=That's Way They Call it Grace
TTITLE8=Feels Good to Be Free
TTITLE9=My God Will Always Be Enough
TTITLE10=Jump
TTITLE11=Just One Touch
TTITLE12=Get About God's Business
TTITLE13=Hold Me While I Cry
TTITLE14=A Taste Of Grace
TTITLE15=Now That You Know
EXTD=
EXTT0=
EXTT1=
EXTT2=
EXTT3=
EXTT4=
EXTT5=
EXTT6=
EXTT7=
EXTT8=
EXTT9=
EXTT10=
EXTT11=
EXTT12=
EXTT13=
EXTT14=
EXTT15=
PLAYORDER=
